<?xml version="1.0" encoding="utf-8"?>
<!-- Generator: Adobe Illustrator 25.0.0, SVG Export Plug-In . SVG Version: 6.00 Build 0)  -->
<svg version="1.1" id="Layer_1" xmlns="http://www.w3.org/2000/svg" xmlns:xlink="http://www.w3.org/1999/xlink" x="0px" y="0px"
	 viewBox="0 0 10 24" style="enable-background:new 0 0 10 24;" xml:space="preserve">
<path d="M6,16H4c-1.1,0-2,0.9-2,2v2c0,1.1,0.9,2,2,2h2c1.1,0,2-0.9,2-2v-2C8,16.9,7.1,16,6,16z M6,20H4v-2h2V20z"/>
<path d="M6,9H4c-1.1,0-2,0.9-2,2v2c0,1.1,0.9,2,2,2h2c1.1,0,2-0.9,2-2v-2C8,9.9,7.1,9,6,9z M6,13H4v-2h2V13z"/>
<path d="M6,2H4C2.9,2,2,2.9,2,4v2c0,1.1,0.9,2,2,2h2c1.1,0,2-0.9,2-2V4C8,2.9,7.1,2,6,2z M6,6H4V4h2V6z"/>
</svg>
